<svg xmlns="http://www.w3.org/2000/svg" width="270" height="270" viewBox="0 0 270 270">
  <g fill="none" fill-rule="evenodd">
    <g fill="#eee" transform="rotate(-6 504.785 -114.393)">
      <ellipse cx="74.435" cy="74.36" rx="41.263" ry="41.221"/>
    </g>
    <path fill="#ccc" d="M219.126384,198.930847 C219.846639,198.976716 220.573019,199 221.304825,199 C239.989573,199 255.136555,183.82113 255.136555,165.097046 C255.136555,147.442569 241.670678,132.939837 224.470108,131.340519 C218.770362,107.048118 197.004547,88.9638761 171.023804,88.9638761 C140.702003,88.9638761 116.121326,113.596302 116.121326,143.981938 C116.121326,145.724787 116.202194,147.448708 116.360375,149.150139 C113.91252,148.366068 111.303726,147.942821 108.596284,147.942821 C97.4243042,147.942821 87.9320011,155.149513 84.4961373,165.17692 C76.3554065,166.430909 70.1213262,173.480551 70.1213262,181.989305 C70.1213262,190.892667 76.9470455,198.19844 85.6406262,198.93833 L85.6406262,199 L219.126393,199 L219.126393,198.930848 Z"/>
  </g>
</svg>
